<svg id="Layer_1" data-name="Layer 1" xmlns="http://www.w3.org/2000/svg" viewBox="0 0 1259.13 1259.13"><defs><style>.cls-1{fill:none;stroke-width:8px;}.cls-1,.cls-3{stroke:#fff;}.cls-1,.cls-3,.cls-4{stroke-miterlimit:10;}.cls-2,.cls-3{fill:#fff;}.cls-4{stroke:#000;}</style></defs><title>a1</title><line class="cls-1" x1="138.96" y1="882.01" x2="244.81" y2="820.62"/><ellipse class="cls-1" cx="628.26" cy="630.28" rx="597.21" ry="597.06"/><circle class="cls-1" cx="628.53" cy="630.56" r="367.56"/><path class="cls-2" d="M473.45,640.86a36.75,36.75,0,0,0,6.77,21.37q6.55,9.13,19.21,14,5.85,2.25,8.57,2a15.06,15.06,0,0,1,3-.11q-3.27,8.54-8.44,11.36t-13.38-.32q-10.12-3.88-16.51-15.86a70.43,70.43,0,0,1-3.32-55.41c.56-1.48,1.48-3.55,2.74-6.21L580.76,682.2,572,705Z" transform="translate(-330.93 -210.93)"/><path class="cls-2" d="M620.64,599a19.91,19.91,0,0,1-14-3.65,44.37,44.37,0,0,1-6.19-5.21q-3.24-3.23-6.22-6.36c-2-2.1-3.25-3.46-3.78-4.1q-4.14-4.44-8.25-8.65a47.75,47.75,0,0,0-7.05-6.21Q568,560,564.59,565q-2.46,3.65-.79,8.87a33.21,33.21,0,0,0,6.29,10.8l38.55,40L595,644.9l-60.05-62.35,13.68-20.19,6.24,6.48q-3.11-12.33,3.26-21.73,4.85-7.15,11.62-8.7t14.77,3.87a56.87,56.87,0,0,1,8.38,7.1q4.3,4.36,10.23,11,3.58,4.08,7.1,7.78a39.09,39.09,0,0,0,5.91,5.33,8,8,0,0,0,5.2,1.68c1.6-.14,3.09-1.24,4.49-3.3a10.06,10.06,0,0,0,1.54-8.77q-1.3-4.57-5.91-11.37l4-5.89q11.91,15.64,12.57,26t-4.29,17.65Q627.91,598.08,620.64,599Z" transform="translate(-330.93 -210.93)"/><path class="cls-2" d="M660,545.58q-9.19-.74-18.44-11.32A77.55,77.55,0,0,1,628,511.15a60.71,60.71,0,0,1-4.16-27.41A32.79,32.79,0,0,1,635.32,461q5.22-4.58,9.33-5a7.34,7.34,0,0,1,6.68,2.49l.44.51-19.39-34.79,16.64-19,45.54,81.66a20.53,20.53,0,0,0,3.06,4.53q2.22,2.55,4.38,2.57t5-2.42a10.51,10.51,0,0,0,3.51-8.47,29.64,29.64,0,0,0-3-11.78l5.36-4.69q12.18,29.63-5.67,45.23-5.24,4.58-10.93,4.61c-3.81,0-7.52-1.52-11.16-4.65a40.81,40.81,0,0,1-.61,15.39,24.32,24.32,0,0,1-8,12.84A21.52,21.52,0,0,1,660,545.58Zm17.67-33.44a19.37,19.37,0,0,0-2.53-11.52l-.56-.63-19.28-34.66q-5.05-3.46-9.13.11-5.1,4.46-4,13.95a62.51,62.51,0,0,0,6.12,19.86A74.69,74.69,0,0,0,658.88,516q5.57,6.38,9,6.54a8.28,8.28,0,0,0,6.08-2.17C676,518.56,677.23,515.83,677.68,512.14Z" transform="translate(-330.93 -210.93)"/><path class="cls-2" d="M717.8,402.16l21.6-11.32,2.93,10.32a67.55,67.55,0,0,1,5.6-11.74,19.66,19.66,0,0,1,7.67-7.08,10.57,10.57,0,0,1,9.3-.67,13.46,13.46,0,0,1,6.94,6.49,12.82,12.82,0,0,1,1.17,9.15q-1.12,4.79-6.22,7.47-3.3,1.73-5.25.74a13.61,13.61,0,0,1-4.13-3.67,16.23,16.23,0,0,0-2.39-2.38,1.89,1.89,0,0,0-2.12,0,11.76,11.76,0,0,0-4.66,4.07,41.9,41.9,0,0,0-3.3,7.37l17.89,63.29-21.6,11.32Z" transform="translate(-330.93 -210.93)"/><path class="cls-2" d="M815.59,441.12q-8-4.58-11.88-18.09a77.53,77.53,0,0,1-2.45-26.69,60.71,60.71,0,0,1,7.89-26.57,32.83,32.83,0,0,1,20.07-15.71q6.67-1.9,10.59-.56a7.29,7.29,0,0,1,5,5.09l.33,1.14-.68-9.15,23.44-6.72L872,402.58a20.74,20.74,0,0,0,.84,5.39q2,7,8.68,5.09,4.56-1.31,6.69-6.5A33.11,33.11,0,0,0,890.34,394l6.84-2q-1,19.31-8.06,28.12t-16,11.38q-6.84,2-12.08-.68t-8.17-9.73a47.39,47.39,0,0,1-7.4,13.84A23.83,23.83,0,0,1,832.88,443,21.57,21.57,0,0,1,815.59,441.12Zm30.31-23A20.93,20.93,0,0,0,848.34,406l-2.73-39a6.84,6.84,0,0,0-2.82-3.68c-1.47-1.05-3.35-1.24-5.63-.59q-6.51,1.86-9.55,10.93a62.11,62.11,0,0,0-2.91,20.57,74.64,74.64,0,0,0,2.46,19.64q2.33,8.14,5.34,9.74a8.31,8.31,0,0,0,6.44.62Q843,423.06,845.9,418.08Z" transform="translate(-330.93 -210.93)"/><path class="cls-2" d="M926.7,418.52a20.54,20.54,0,0,1-8.64-7.76,21.6,21.6,0,0,1-3.16-10.29,17.83,17.83,0,0,1,2.21-9.84,16.08,16.08,0,0,1,6.08-6.28,215.36,215.36,0,0,0,10.47-24.44q4.38-12.32,8.18-26.55l24.89-4.46q1.78,21.62,4.9,46.74,1.29,10.13,1.49,14.69a25.94,25.94,0,0,1-.4,6.45,69.07,69.07,0,0,0,11.81-9l7.11-.31a99.06,99.06,0,0,1-25,22.27A29.23,29.23,0,0,1,954.9,418a44.65,44.65,0,0,1-14.36,3.08A27.69,27.69,0,0,1,926.7,418.52Zm18.18-14.77q4.07-3.9,3.71-12.2A138.7,138.7,0,0,0,947,377.39q-2.54-19.22-3.32-25.8-3.48,13.55-12.32,32.57,4,1.88,4.15,5.76a8.74,8.74,0,0,1-1.87,5.84,6.64,6.64,0,0,1-5.22,2.77c-2.37.1-3.92-.56-4.66-2q.25,6.09,2.84,8.86c1.71,1.85,4.38,2.69,8,2.54A15.3,15.3,0,0,0,944.88,403.75Z" transform="translate(-330.93 -210.93)"/><path class="cls-2" d="M1015.11,414.35q-6-7.62-3.57-21.29,2-11.34,9.2-24.33a60.36,60.36,0,0,1,19.3-21.22q12.15-8.24,27.82-5.41,21.33,3.84,16.54,30.5l0,.17a6.74,6.74,0,0,0,1.8.5,34.92,34.92,0,0,0,13.19-.64,64,64,0,0,0,14.28-4.75l.69,4.77a40.5,40.5,0,0,1-14.16,6.49,66.21,66.21,0,0,1-17.83,2q-4.06,14.93-11.6,25.27t-17.32,15a32.34,32.34,0,0,1-19.94,2.78Q1021.14,422,1015.11,414.35Zm36.56-7.11a41.52,41.52,0,0,0,9.24-11.24,82,82,0,0,0,7.5-16.81q-4.32-1.8-3.24-7.81,1.23-6.83,6.79-8.07c.43-3.71.33-6.33-.31-7.88s-2.07-2.53-4.29-2.92q-5.5-1-12.1,6.08a71.55,71.55,0,0,0-11.79,17.67,74.4,74.4,0,0,0-6.7,19.1q-1.44,8-.1,11.08t6.17,3.95Q1046.85,411.11,1051.67,407.24Z" transform="translate(-330.93 -210.93)"/><path class="cls-2" d="M1182.93,469.86q-1.28-6.66,2.35-14.12a43,43,0,0,1,4.28-6.86q2.71-3.66,5.41-7.07t3.51-4.31q3.81-4.74,7.4-9.4a48.71,48.71,0,0,0,5.13-7.86q3.78-7.77-1.7-10.44-4-1.92-8.89.48a33.07,33.07,0,0,0-9.8,7.76l-34.13,43.85-21.94-10.66,36.67-47.14a17.23,17.23,0,0,0,2.31-3.59q3.26-6.69-1.31-8.92-4.26-2.07-9.28.29a32.28,32.28,0,0,0-9.94,7.88l-34.13,43.85-21.94-10.66,53.18-68.31L1172,375.3l-5.53,7.1q12-4.9,22.81.36,13.4,6.51,9.31,20.72,14.67-8.87,27.47-2.65,7.77,3.78,10.26,10.26t-1.72,15.17a56.84,56.84,0,0,1-5.84,9.31q-3.71,4.89-9.46,11.69-3.51,4.13-6.69,8.14a39.83,39.83,0,0,0-4.43,6.6,8,8,0,0,0-.92,5.39c.37,1.56,1.67,2.89,3.9,4q3.66,1.78,5.47,1.53-4.68,7.33-11.26,9a18.54,18.54,0,0,1-13.12-1.49Q1184.22,476.52,1182.93,469.86Z" transform="translate(-330.93 -210.93)"/><path class="cls-2" d="M759.06,1220.51q-12.78-2.13-23.06,3t-16.67,17.31q-2.87,5.45-2.91,8a10.88,10.88,0,0,1-.28,3q-15.35-8.05-8.5-21.1,4.68-8.9,16.19-14.28a59.26,59.26,0,0,1,25.17-5.45,51,51,0,0,1,24.26,5.51,36.54,36.54,0,0,1,9.85,7.73l-43,73.84,71.21-59L832,1249.83l-70.44,97.64-20.65-10.83,43-59.57-60.75,50.24L703.49,1317l36.81-63.17-57.89,52.1-11.47-6Z" transform="translate(-330.93 -210.93)"/><path class="cls-2" d="M831,1364.6q-4.83-7.38-2.27-20.57a74,74,0,0,1,9.5-23.81A58,58,0,0,1,856.51,1301a31.42,31.42,0,0,1,23.93-4.67q6.51,1.28,9.26,4.11a7,7,0,0,1,2,6.5l-.22,1.12,3.39-8.09,22.89,4.45-21.95,51.83a19.65,19.65,0,0,0-1.63,5q-1.34,6.84,5.19,8.1,4.46.87,8.51-2.63a31.64,31.64,0,0,0,7.27-9.81l6.68,1.3q-9.23,16-19.08,20.46t-18.59,2.74q-6.68-1.3-10-5.82t-2.73-11.84a45.15,45.15,0,0,1-12.31,8.58,22.91,22.91,0,0,1-14.22,1.45A20.63,20.63,0,0,1,831,1364.6Zm35.83-6.48a20,20,0,0,0,7.32-9.22l14.61-34.45a6.57,6.57,0,0,0-.8-4.36,6,6,0,0,0-4.54-2.94q-6.36-1.25-12.89,5.16a59.47,59.47,0,0,0-11.4,16.26,71.82,71.82,0,0,0-6.44,17.81q-1.54,7.95.33,10.62a8,8,0,0,0,5.21,3.32Q862.23,1361.1,866.86,1358.12Z" transform="translate(-330.93 -210.93)"/><path class="cls-2" d="M930.51,1424.09q-5.22-4-5.3-11.61-.15-15.7,26.32-24.39l16.5-81.8,23.32-.23-15.27,75.3a28.66,28.66,0,0,0,12.39-7.9q4.63-5.22,7.78-15.46l6.8-.07q-4.23,14.46-11.61,21.25a39.69,39.69,0,0,1-16.75,9.32l-2.31,11.69q-3.07,15.74-11,21.73a29.35,29.35,0,0,1-17.91,6.09A20.46,20.46,0,0,1,930.51,1424.09ZM945,1411.64q2.56-3.77,3.94-10.73l.93-4.71q-15.81,6-15.73,13.93a5.4,5.4,0,0,0,1.49,3.71,5.19,5.19,0,0,0,4.07,1.57Q942.41,1415.4,945,1411.64Zm28.45-118a12.31,12.31,0,0,1-3.81-9,12.58,12.58,0,0,1,3.63-9.19,12.24,12.24,0,0,1,9-3.9,13,13,0,0,1,13.08,12.83,12.18,12.18,0,0,1-3.71,9.1,12.62,12.62,0,0,1-9.11,3.82A12.33,12.33,0,0,1,973.41,1293.61Z" transform="translate(-330.93 -210.93)"/><path class="cls-2" d="M1046.92,1379.34q-5.67-3.77-7.69-13.27a56,56,0,0,1-.92-10.57v-53.13l22.81-4.84,0,56.28a23.4,23.4,0,0,0,.46,4.54q1.38,6.5,6.13,5.49a9.91,9.91,0,0,0,6.82-5.34,28.29,28.29,0,0,0,2.9-11.29v-53.14l22.81-4.84,0,56.28a20,20,0,0,0,.44,5.21q.67,3.16,2.46,4.19c1.19.69,2.95.78,5.28.29a10,10,0,0,0,6.87-5.43,28.27,28.27,0,0,0,3-11.23l6.66-1.41q-2.23,18.34-9.58,26.28t-16.05,9.78q-6.81,1.44-11.66-1.5c-3.23-2-5.64-5.37-7.22-10.23q-3.54,9.87-8.8,14.29a26.19,26.19,0,0,1-11.45,5.74Q1052.61,1383.09,1046.92,1379.34Z" transform="translate(-330.93 -210.93)"/><path class="cls-2" d="M1247.33,1308.05a19.11,19.11,0,0,1-10.2-9.34,40.86,40.86,0,0,1-2.9-7.17c-.87-2.77-1.68-5.5-2.42-8.16s-1.21-4.37-1.37-5.14q-1.53-5.61-3.11-11a46.15,46.15,0,0,0-3.19-8.39q-3.89-7.29-9-4.55c-2.48,1.32-4,3.71-4.63,7.15a31.75,31.75,0,0,0,.49,11.94l14.73,51.06-20.58,11-15.84-54.87a16.89,16.89,0,0,0-1.48-3.8q-3.35-6.29-7.64-4a9.86,9.86,0,0,0-5,7.34,30.76,30.76,0,0,0,.5,12.12l14.73,51.06-20.58,11-22.94-79.54,20.58-11,2.39,8.27q3-12,13.1-17.44,12.57-6.71,21.27,4.44,1.38-16.32,13.39-22.73,7.29-3.88,13.71-2.17t10.76,9.86a54.44,54.44,0,0,1,3.91,9.76q1.71,5.61,3.73,13.88c.82,3.36,1.66,6.62,2.54,9.75a37.5,37.5,0,0,0,2.61,7.15,7.74,7.74,0,0,0,3.65,3.74c1.42.59,3.17.33,5.27-.79a9.59,9.59,0,0,0,5.22-6.73q.93-4.44.08-12.24l6-3.2q3.09,18.54-1,27.59t-11.51,13Q1253.89,1310.52,1247.33,1308.05Z" transform="translate(-330.93 -210.93)"/><path class="cls-2" d="M1323.55,1253.5q-8.82-.18-18.26-9.75a74,74,0,0,1-14.26-21.3,58,58,0,0,1-5.54-25.92,31.38,31.38,0,0,1,9.68-22.37q4.72-4.67,8.62-5.32a7,7,0,0,1,6.52,2l.45.46-20.49-32.11,14.81-19.13,48.1,75.37a20,20,0,0,0,3.18,4.15c1.51,1.54,3,2.28,4.33,2.21s2.91-.93,4.6-2.6a10.05,10.05,0,0,0,2.87-8.28,28.42,28.42,0,0,0-3.52-11.08l4.84-4.77q13.3,27.59-2.84,43.49-4.74,4.67-10.18,5t-10.9-3.8a39.31,39.31,0,0,1,.29,14.72,23.31,23.31,0,0,1-6.91,12.71A20.61,20.61,0,0,1,1323.55,1253.5Zm15-32.93a18.48,18.48,0,0,0-3.07-10.84l-.57-.58-20.37-32c-3.35-2-6.25-1.8-8.71.63q-4.62,4.55-3,13.55a59.5,59.5,0,0,0,7,18.6,71.88,71.88,0,0,0,11,15.37q5.68,5.78,8.94,5.74a8,8,0,0,0,5.69-2.42C1337.26,1226.81,1338.29,1224.13,1338.51,1220.57Z" transform="translate(-330.93 -210.93)"/><path class="cls-2" d="M1414.12,1154.2q-8.59,2-20.09-5a73.93,73.93,0,0,1-19.07-17.12,58,58,0,0,1-11.74-23.76,31.42,31.42,0,0,1,3.86-24.07q3.43-5.68,7.06-7.28a7,7,0,0,1,6.8.33l1,.59-6.42-6,12.07-20,41.07,38.48a20.21,20.21,0,0,0,4.1,3.24q6,3.6,9.4-2.08,2.34-3.87.46-8.9a31.83,31.83,0,0,0-6.69-10.2l3.52-5.82q11.86,14.17,12.62,25t-3.84,18.4q-3.53,5.82-8.92,7.38t-12-1.51a45,45,0,0,1,3.81,14.51,22.81,22.81,0,0,1-3.55,13.84A20.6,20.6,0,0,1,1414.12,1154.2Zm6.27-35.86a19.91,19.91,0,0,0-6.13-10l-27.28-25.6a6.6,6.6,0,0,0-4.38-.76,6.08,6.08,0,0,0-4.33,3.25q-3.35,5.55.41,13.88a59.35,59.35,0,0,0,11.33,16.31,71.23,71.23,0,0,0,14.49,12.18q6.93,4.2,10.08,3.36a7.93,7.93,0,0,0,4.92-3.75C1420.9,1124.86,1421.19,1121.91,1420.39,1118.34Z" transform="translate(-330.93 -210.93)"/><path class="cls-2" d="M1406.83,1006.15,1414.2,984l8.86,5.17a64.44,64.44,0,0,1-3.92-11.8,18.89,18.89,0,0,1,.58-10,10.18,10.18,0,0,1,6-6.63,12.91,12.91,0,0,1,9.09-.13,12.22,12.22,0,0,1,6.86,5.53,10.72,10.72,0,0,1,.67,9.27c-.75,2.25-1.79,3.59-3.12,4a12.82,12.82,0,0,1-5.28.21,14.73,14.73,0,0,0-3.22,0,1.8,1.8,0,0,0-1.49,1.38,11.33,11.33,0,0,0-.51,5.89,40.06,40.06,0,0,0,2.61,7.27l54.3,31.75-7.38,22.12Z" transform="translate(-330.93 -210.93)"/><path class="cls-3" d="M772.09,834.15S560,746.79,864.18,585.4c0,0,325.46,835-179.94,368.62,0,0,428.53,352,152.11-310.06,0,0-219.18,78.79,49.07,194.42Z" transform="translate(-330.93 -210.93)"/><path class="cls-4" d="M1012.53,1092.47a14.81,14.81,0,0,1-13.94-19.83c.21-.58,14.66-41.17,22.49-86.23,9.54-54.83,5.3-92.83-11.92-107A22.58,22.58,0,0,0,994.09,874c-17.43,0-42.49,16-70.57,45.17a449.83,449.83,0,0,0-40.17,48.42,14.82,14.82,0,0,1-25.77-14.33c22.29-51.57,48.32-90,77.39-114.29,25.33-21.15,53.12-31.88,82.6-31.88,33,0,61.86,13.46,82.56,27-1.06-16.95,1.76-30.2,8.44-39.52,4.83-6.74,14-14.76,30.54-14.76,15.85,0,35.82,7.59,61.06,23.21,63.62,39.37,78,87.32,78.79,120.6.9,36.1-13.66,62.72-14.28,63.83a14.82,14.82,0,0,1-13,7.62,14.6,14.6,0,0,1-3.57-.44,14.82,14.82,0,0,1-11.25-14.06c-1.12-51.7-30.71-71.93-56.61-79.71,6,12.53,10.07,27.41,12,44.33,3.07,27.74-.42,55.53-5.24,70.77-1.58,5-6.39,20.18-20.19,20.18-4.06,0-13.91-1.58-17.69-16.26-1.25-4.85-2-11.36-2.3-19.91-1.55-44-31.38-70.88-43.76-75.23a38.92,38.92,0,0,0,1.39,7.87c7.69,29-4.25,64.44-35.5,105.43a396.65,396.65,0,0,1-46.59,50.77A14.83,14.83,0,0,1,1012.53,1092.47Z" transform="translate(-330.93 -210.93)"/><path class="cls-3" d="M871.19,959.11S965.06,824,1018.57,868s-6,209.69-6,209.69,93.18-82.7,77.61-141.31,68.75-15.16,71.5,63,45.28-75.09-15.81-118.09c0,0,103.66-4.36,105.9,98.89,0,0,52.9-95.15-59.36-164.63s-69.75,55.75-69.75,55.75S976.82,714.67,871.19,959.11Z" transform="translate(-330.93 -210.93)"/><circle class="cls-1" cx="629.57" cy="629.57" r="625.57"/><polygon class="cls-2" points="644.99 403.36 633.52 392.31 617.92 395.49 624.89 381.16 617.04 367.3 632.81 369.51 643.57 357.76 646.35 373.44 660.84 380.04 646.79 387.53 644.99 403.36"/><polygon class="cls-2" points="772.46 423.39 756.57 422.34 746.69 434.83 742.78 419.4 727.85 413.87 741.32 405.38 741.96 389.46 754.2 399.65 769.54 395.35 763.63 410.14 772.46 423.39"/><polygon class="cls-2" points="822.14 514.04 806.61 517.54 800.68 532.32 792.55 518.63 776.66 517.56 787.17 505.6 783.28 490.15 797.9 496.45 811.39 487.98 809.91 503.84 822.14 514.04"/><line class="cls-1" x1="1021.73" y1="451.21" x2="1127.58" y2="389.82"/></svg>